<svg xmlns="http://www.w3.org/2000/svg" version="1.1" xmlns:xlink="http://www.w3.org/1999/xlink" width="1500" height="1500" viewBox="0 0 1500 1500"><rect width="1500" height="1500" x="0" y="0" id="background" stroke="transparent" fill="#1a1a2e"></rect><svg xml:space="preserve" width="1000" height="1000" data-version="2" data-id="lg_QJyds35u5NWx07WphG" viewBox="0 0 467 566" x="250" y="250"><rect width="100%" height="100%" fill="transparent"></rect><circle r="151.4" stroke="gold" transform="translate(233.42 203.88)scale(1.3055)"></circle><rect width="350.19" height="131.08" x="-175.1" y="-65.54" fill="#1a1a2e" rx="0" ry="0" transform="translate(233.5 354.95)scale(1.3055)"></rect><path fill="gold" d="M258.64 470.175q.51 0 .51 1.03t-.51 1.03q-4.82 0-7.57-.17l-11.87-.17-11.18.17q-2.75.17-7.74.17-.52 0-.6-1.03-.09-1.03.6-1.03 6.02 0 8.94-.95 2.93-.95 3.96-3.35 1.03-2.41.69-7.57l-2.41-81.36-36.81 94.09q0 .68-1.2.68-1.03 0-1.38-.86l-39.21-91.84-.18-.52-.34 74.99q0 8.95 2.75 12.82 2.75 3.87 9.46 3.87.52 0 .6 1.03.09 1.03-.6 1.03-3.78 0-5.85-.17l-8.77-.17-8.08.17q-2.24.17-6.37.17-.51 0-.51-1.03t.34-1.03q6.71 0 9.89-3.96 3.18-3.96 3.18-12.73l.52-81.18q-4.99-5.51-13.24-5.51-.52 0-.52-1.03t.34-1.03l5.51.17q1.89.17 4.99.17 3.44 0 5.59-.17t3.35-.17q2.06 0 3.53 1.72 1.46 1.72 4.04 7.22l34.74 81.36 33.54-86q.52-1.89 2.07-3.1 1.54-1.2 3.26-1.2 1.04 0 3.1.17t4.64.17l7.74-.17q1.9-.17 5.16-.17.52 0 .52 1.03t-.52 1.03q-7.91 0-11.43 2.33-3.53 2.32-3.01 9.2l2.4 79.98q.35 5.33 1.38 7.74 1.03 2.41 3.78 3.27 2.76.86 8.78.86"></path><rect width="124.18" height="107.5" x="-62.09" y="-53.75" fill="none" rx="0" ry="0" transform="translate(197.56 418.99)"></rect><path fill="gold" d="M294.93 472.405q-4.13 0-9.29-.51v30.96q0 6.02 1.72 8.34 1.72 2.32 6.36 2.32 1.21 0 4.65-.34h.17q.52 0 .69.86.17.86-.52 1.03l-31.65 4.47q-.68.17-.94-.86-.26-1.03.43-1.2 4.13-.69 5.93-1.81 1.81-1.12 2.41-3.53.6-2.4.6-8.08l.17-81.7q-.86.52-7.39 5.85l-.35.17q-.68 0-1.2-.69-.52-.69-.17-1.03 2.92-2.75 9.11-7.91v-12.9q0-.35 2.24-2.41t3.96-4.47q1.72-2.41 1.72-5.51 0-.68 1.03-.68t1.03.68v18.58q12.73-7.4 24.25-7.4 10.84 0 16.69 6.54 5.84 6.54 5.84 19.09 0 11.7-4.64 21.33-4.64 9.63-13.16 15.22-8.51 5.59-19.69 5.59m8.08-61.57q-8.43 0-17.37 4.98v48.85q7.4 2.93 14.28 2.93 12.55 0 17.8-8.09 5.24-8.08 5.24-22.53 0-26.14-19.95-26.14"></path><rect width="66.46" height="126.84" x="-33.23" y="-63.42" fill="none" rx="0" ry="0" transform="translate(299.69 456.7)"></rect><path fill="gold" d="M130.49 559.425q-.89 0-1.6-.43-.72-.42-1.13-1.14-.42-.71-.42-1.57v-16.88h2.13v4.94H136v2.14h-6.53v9.8q0 .41.3.71t.72.3H136v2.13z"></path><rect width="8.66" height="20.02" x="-4.33" y="-10.01" fill="none" rx="0" ry="0" transform="translate(132.17 549.91)"></rect><path fill="gold" d="M147.1 559.425h-2.13v-20.02h2.13v4.94h10.09q.86 0 1.57.43.72.43 1.15 1.15.42.71.42 1.57v11.93h-2.13v-11.93q0-.42-.3-.72-.3-.29-.71-.29h-9.05q-.42 0-.73.29-.31.3-.31.72z"></path><rect width="15.36" height="20.02" x="-7.68" y="-10.01" fill="none" rx="0" ry="0" transform="translate(153.15 549.91)"></rect><path fill="gold" d="M172.35 559.425q-.86 0-1.58-.43-.71-.42-1.14-1.14-.43-.71-.43-1.57v-8.79q0-.86.43-1.57.43-.72 1.14-1.15.72-.43 1.58-.43h9.04q.89 0 1.6.43.72.43 1.15 1.15.43.71.43 1.57v5.46h-13.24v3.33q0 .41.3.71t.72.3h12.22v2.13zm-1.02-11.93v3.33h11.08v-3.33q0-.42-.3-.72-.3-.29-.72-.29h-9.04q-.42 0-.72.29-.3.3-.3.72"></path><rect width="15.37" height="15.08" x="-7.68" y="-7.54" fill="none" rx="0" ry="0" transform="translate(177.38 552.38)"></rect><path fill="gold" d="M210.36 559.425h-2.13v-20.02h2.13v4.94h10.09q.85 0 1.57.43.71.43 1.14 1.15.43.71.43 1.57v11.93h-2.13v-11.93q0-.42-.3-.72-.3-.29-.71-.29h-9.05q-.42 0-.73.29-.31.3-.31.72z"></path><rect width="15.36" height="20.02" x="-7.68" y="-10.01" fill="none" rx="0" ry="0" transform="translate(216.41 549.91)"></rect><path fill="gold" d="M247.85 559.425h-12.22q-.86 0-1.57-.43-.72-.42-1.15-1.14-.43-.71-.43-1.57v-5.46h13.21v-3.33q0-.42-.3-.72-.3-.29-.71-.29h-12.2v-2.14h12.2q.88 0 1.6.43.71.43 1.14 1.15.43.71.43 1.57zm-12.22-2.13h10.06v-4.34h-11.07v3.33q0 .41.3.71.29.3.71.3"></path><rect width="15.37" height="15.08" x="-7.68" y="-7.54" fill="none" rx="0" ry="0" transform="translate(240.66 552.38)"></rect><path fill="gold" d="M260.59 559.425q-.86 0-1.57-.43-.72-.42-1.15-1.14-.43-.71-.43-1.57v-8.79q0-.86.43-1.57.43-.72 1.15-1.15.71-.43 1.57-.43h12.17v2.14h-12.17q-.42 0-.71.29-.3.3-.3.72v8.79q0 .41.3.71.29.3.71.3h12.22v2.13z"></path><rect width="15.37" height="15.08" x="-7.68" y="-7.54" fill="none" rx="0" ry="0" transform="translate(265.63 552.38)"></rect><path fill="gold" d="M284.67 559.425h-2.14v-20.02h2.14v11.42h4.16l5.92-6.48h2.81v.03l-6.84 7.51 6.82 7.52v.02h-2.79l-5.92-6.47h-4.16z"></path><rect width="15.03" height="20.02" x="-7.51" y="-10.01" fill="none" rx="0" ry="0" transform="translate(290.55 549.91)"></rect><path fill="gold" d="M309.34 559.425q-.86 0-1.57-.43-.72-.42-1.15-1.14-.43-.71-.43-1.57v-8.79q0-.86.43-1.57.43-.72 1.15-1.15.71-.43 1.57-.43h9.05q.88 0 1.6.43.71.43 1.14 1.15.43.71.43 1.57v5.46h-13.23v3.33q0 .41.3.71.29.3.71.3h12.22v2.13zm-1.01-11.93v3.33h11.07v-3.33q0-.42-.3-.72-.3-.29-.71-.29h-9.05q-.42 0-.71.29-.3.3-.3.72"></path><rect width="15.37" height="15.08" x="-7.68" y="-7.54" fill="none" rx="0" ry="0" transform="translate(314.38 552.38)"></rect><path fill="gold" d="M333.29 559.425h-2.14v-11.93q0-.86.43-1.57.43-.72 1.15-1.15.71-.43 1.57-.43h8.48v2.14h-8.48q-.42 0-.71.29-.3.3-.3.72z"></path><rect width="11.63" height="15.08" x="-5.82" y="-7.54" fill="none" rx="0" ry="0" transform="translate(337.47 552.38)"></rect><path fill="gold" d="M267.295 271.569v6.31h56.798v9.467c0 5.22-4.247 9.466-9.466 9.466H150.541c-5.22 0-9.466-4.247-9.466-9.466v-9.466h56.799v-6.311h-63.11v15.777c0 8.7 7.077 15.777 15.777 15.777h164.086c8.7 0 15.778-7.077 15.778-15.777v-15.778z"></path><path fill="gold" d="M204.185 281.035c0 5.22 4.247 9.466 9.466 9.466h37.866c5.22 0 9.467-4.247 9.467-9.466v-9.467h-56.8zm6.31-3.156h44.178v3.156a3.16 3.16 0 0 1-3.156 3.155h-37.866a3.16 3.16 0 0 1-3.155-3.155zm107.288-113.598v100.976h6.31V164.282c0-8.7-7.077-15.777-15.777-15.777h-22.088v6.311h22.088c5.22 0 9.467 4.247 9.467 9.467m-170.397 0c0-5.22 4.247-9.467 9.466-9.467h22.089v-6.311h-22.089c-8.7 0-15.777 7.078-15.777 15.778v100.975h6.31z"></path><path fill="gold" d="M178.94 161.126h-18.933a6.317 6.317 0 0 0-6.31 6.311v97.82h6.31v-97.82h18.933zm126.22 104.131h6.311v-97.82c0-3.48-2.83-6.311-6.31-6.311h-18.933v6.311h18.933zm-111.187-72.576 3.9 1.95v7.516c0 5.134 2.503 9.66 6.312 12.54v7.362l-25.244 9.467v15.39a9.454 9.454 0 0 0-6.311 8.885c0 5.22 4.247 9.467 9.466 9.467s9.467-4.248 9.467-9.467a9.454 9.454 0 0 0-6.311-8.886V235.89l25.243-9.466v-8.817c1.02.209 2.077.319 3.156.319h3.155v10.672l-12.622 6.31v11.998a9.454 9.454 0 0 0-6.31 8.886c0 5.22 4.247 9.467 9.466 9.467s9.467-4.248 9.467-9.467a9.454 9.454 0 0 0-6.311-8.886v-8.097l12.621-6.31v-14.573h6.312v28.98a9.454 9.454 0 0 0-6.311 8.886c0 5.22 4.247 9.467 9.466 9.467s9.467-4.248 9.467-9.467a9.454 9.454 0 0 0-6.311-8.886v-28.98h6.31v14.572l12.623 6.311v8.097a9.454 9.454 0 0 0-6.311 8.886c0 5.22 4.247 9.467 9.466 9.467s9.467-4.248 9.467-9.467a9.454 9.454 0 0 0-6.311-8.886v-11.997l-12.622-6.311v-10.672h3.155c1.08 0 2.136-.11 3.156-.319v8.817l25.243 9.466v11.016a9.454 9.454 0 0 0-6.31 8.886c0 5.22 4.247 9.467 9.466 9.467s9.467-4.248 9.467-9.467a9.454 9.454 0 0 0-6.311-8.886v-15.39l-25.244-9.466v-7.362c3.808-2.884 6.31-7.409 6.31-12.54v-7.516l3.9-1.95a15.69 15.69 0 0 0 8.723-14.111v-23.755c0-26.1-21.234-47.332-47.333-47.332s-47.332 21.233-47.332 47.332v23.755a15.69 15.69 0 0 0 8.721 14.111m-11.877 66.266a3.16 3.16 0 0 1-3.155-3.156 3.16 3.16 0 0 1 3.155-3.155 3.16 3.16 0 0 1 3.156 3.155 3.16 3.16 0 0 1-3.156 3.156m25.244 0a3.16 3.16 0 0 1-3.155-3.156 3.16 3.16 0 0 1 3.155-3.155 3.16 3.16 0 0 1 3.156 3.155 3.16 3.16 0 0 1-3.156 3.156m25.244 0a3.16 3.16 0 0 1-3.155-3.156 3.16 3.16 0 0 1 3.155-3.155 3.16 3.16 0 0 1 3.156 3.155 3.16 3.16 0 0 1-3.156 3.156m25.244 0a3.16 3.16 0 0 1-3.155-3.156 3.16 3.16 0 0 1 3.155-3.155 3.16 3.16 0 0 1 3.156 3.155 3.16 3.16 0 0 1-3.156 3.156m25.244 0a3.16 3.16 0 0 1-3.155-3.156 3.16 3.16 0 0 1 3.155-3.155 3.16 3.16 0 0 1 3.156 3.155 3.16 3.16 0 0 1-3.156 3.156m-91.51-104.132c0-22.619 18.403-41.021 41.022-41.021s41.022 18.402 41.022 41.021v23.755a9.41 9.41 0 0 1-5.232 8.466l-7.39 3.695v11.416c0 5.22-4.248 9.467-9.467 9.467h-37.866c-5.22 0-9.466-4.247-9.466-9.466V190.73l-7.39-3.695a9.41 9.41 0 0 1-5.232-8.466z"></path><path fill="gold" d="M229.429 189.526h-6.312v-6.312h-6.31v6.311h-6.312v6.311h6.311v6.311h6.311v-6.31h6.311v6.31h6.311v-6.31h6.311v6.31h6.311v-6.31h6.312v-6.311h-6.311v-6.312h-6.311v6.311h-6.311v-6.31h-6.312zm10.94-23.351 7.011 5.26a11.637 11.637 0 0 0 6.942 2.313h1.404a11.58 11.58 0 0 0 11.568-11.571v-5.26a11.58 11.58 0 0 0-11.57-11.568h-8.416a11.58 11.58 0 0 0-11.568 11.57 11.612 11.612 0 0 0 4.629 9.256m6.942-14.516h8.415a5.266 5.266 0 0 1 5.258 5.26v5.26a5.266 5.266 0 0 1-5.26 5.258h-1.405c-1.13 0-2.25-.372-3.155-1.05l-7.009-5.261a5.282 5.282 0 0 1-2.105-4.206 5.27 5.27 0 0 1 5.26-5.26m-37.865 22.088h1.404a11.644 11.644 0 0 0 6.942-2.313l7.012-5.26a11.622 11.622 0 0 0 4.625-9.255 11.584 11.584 0 0 0-11.57-11.571h-8.416a11.58 11.58 0 0 0-11.568 11.57v5.26a11.58 11.58 0 0 0 11.57 11.569m-5.26-16.828a5.27 5.27 0 0 1 5.26-5.26h8.416a5.266 5.266 0 0 1 5.258 5.26 5.27 5.27 0 0 1-2.105 4.206l-7.012 5.26a5.28 5.28 0 0 1-3.155 1.051h-1.404a5.267 5.267 0 0 1-5.257-5.26z"></path></svg></svg>